PathFileType	4	(X/Y/Z)	C:\Users\Alexander Denk\OneDrive - Universitaet Duisburg-Essen\Dokumente\GitHub\artisynth_dissertation_models\src\artisynth\models\gait_model\Models\EP010DR1980_BE_3Gang16\Input\EP010DR1980_BE_3Gang16_positions.trc
DataRate	CameraRate	NumFrames	NumMarkers	Units	OrigDataRate	OrigDataStartFrame	OrigNumFrames
100	100	4	41	m	100	27	110
Frame#	Time	LELB			LSHO			RSHO			LUPA			LBHD			RUPA			RBHD			C7			RWRB			LWRB			RELB			RBAK			LANK			LKNE			LPSI			T10			LBTO			RPSI			RKNE			LTIB			RTIB			LTHI			RBTO			RTOE			RANK			RHEE			RTHI			LHEE			LFRM			LWRA			RFRM			LFIN			RFIN			RFHD			RWRA			RASI			LTOE			STRN			CLAV			LASI			LFHD			
		X1	Y1	Z1	X2	Y2	Z2	X3	Y3	Z3	X4	Y4	Z4	X5	Y5	Z5	X6	Y6	Z6	X7	Y7	Z7	X8	Y8	Z8	X9	Y9	Z9	X10	Y10	Z10	X11	Y11	Z11	X12	Y12	Z12	X13	Y13	Z13	X14	Y14	Z14	X15	Y15	Z15	X16	Y16	Z16	X17	Y17	Z17	X18	Y18	Z18	X19	Y19	Z19	X20	Y20	Z20	X21	Y21	Z21	X22	Y22	Z22	X23	Y23	Z23	X24	Y24	Z24	X25	Y25	Z25	X26	Y26	Z26	X27	Y27	Z27	X28	Y28	Z28	X29	Y29	Z29	X30	Y30	Z30	X31	Y31	Z31	X32	Y32	Z32	X33	Y33	Z33	X34	Y34	Z34	X35	Y35	Z35	X36	Y36	Z36	X37	Y37	Z37	X38	Y38	Z38	X39	Y39	Z39	X40	Y40	Z40	X41	Y41	Z41	X42	Y42	Z42	X43	Y43	Z43	

28	0.27	0.5546904296875	1.19233337402344	-1.13866102361679	0.477836059570312	1.53233239746094	-1.16387843084335	0.0991437759399414	1.53408361816406	-1.19287843084335	0.521450927734375	1.387435546875	-1.15695014715195	0.366870727539063	1.66986657714844	-1.18394764471054	0.0221626930236816	1.27211193847656	-1.19743415594101	0.218091873168945	1.68065625	-1.1906605963707	0.288885711669922	1.57329138183594	-1.24055579900742	0.0166324977874756	0.909184020996094	-1.1309062628746	0.553682373046875	0.913409729003906	-1.11787733221054	0.00367914199829102	1.17838110351563	-1.18594654607773	0.148453796386719	1.47349584960938	-1.28572669744492	0.363007019042969	0.0668935089111329	-1.19370246648788	0.417118316650391	0.526595886230469	-1.14917072820663	0.322737854003906	1.11204382324219	-1.28221607732773	0.306328704833984	1.29266918945313	-1.30799250555038	0.311929046630859	0.0345102767944336	-0.985582776546478	0.254171173095703	1.10719287109375	-1.28073103094101	0.140824493408203	0.536282897949219	-1.03883625555038	0.416764923095703	0.365655456542969	-1.15885926580429	0.13833349609375	0.410998748779297	-1.12669312810898	0.440160003662109	0.687642822265625	-1.13415229558945	0.181580215454102	0.047308837890625	-1.11387037420273	0.174442611694336	0.0725315170288086	-1.16801917791367	0.193944808959961	0.173363342285156	-1.28653925848007	0.249943664550781	0.166394577026367	-1.34707246160507	0.128005157470703	0.686554321289062	-1.04414350652695	0.331976715087891	0.0335942344665528	-1.26193476629257	0.542548034667969	0.952325805664063	-1.07812806463242	0.493647979736328	0.92035693359375	-1.06890870428085	0.0123292446136475	0.963912353515625	-1.10845252752304	0.530750305175781	0.843259399414062	-1.0266791510582	0.0227339878082275	0.836486999511719	-1.03312763738632	0.224271957397461	1.75442004394531	-1.05739246892929	0.0660372924804687	0.928167663574219	-1.0721923956871	0.16331086730957	1.06867053222656	-1.10385365056992	0.340490570068359	0.0381186485290528	-1.0403964972496	0.289786865234375	1.30791381835938	-1.07074250555038	0.283089324951172	1.44062512207031	-1.09225745916367	0.422539154052734	1.07235412597656	-1.1081992316246	0.351307647705078	1.74412902832031	-1.04888337469101
29	0.28	0.555423950195313	1.19353942871094	-1.13722838656108	0.477905487060547	1.53336608886719	-1.16384661165873	0.0992984237670898	1.53397802734375	-1.19450243441264	0.521804077148437	1.38861584472656	-1.15623418490092	0.366507659912109	1.67044299316406	-1.18434417025248	0.0221148147583008	1.27217626953125	-1.20031157747904	0.217737289428711	1.68096252441406	-1.19140160433451	0.289018157958984	1.57331604003906	-1.2409805838267	0.0162390823364258	0.909189331054687	-1.13417369906108	0.553472473144531	0.914952270507812	-1.11357762972514	0.00349452209472656	1.17837475585938	-1.18926934115092	0.149153686523437	1.47358764648438	-1.28716997591654	0.362597991943359	0.0668470001220704	-1.20713713900248	0.417156585693359	0.526319213867187	-1.15824291292826	0.323278961181641	1.11239660644531	-1.28341484896342	0.307394866943359	1.29318688964844	-1.30897881380717	0.311859436035156	0.034447509765625	-0.999033440272013	0.254665405273438	1.10772729492188	-1.28194072786967	0.141508178710938	0.538384338378906	-1.03360234896342	0.416652282714844	0.365282409667969	-1.16922881380717	0.13866618347168	0.407829895019531	-1.11559215609233	0.440219268798828	0.687316467285156	-1.14084362093608	0.178967880249023	0.0471015090942383	-1.08149987093608	0.172709671020508	0.0687044372558594	-1.13708373324076	0.194385604858398	0.16116047668457	-1.26175127474467	0.250521820068359	0.15007421875	-1.32122002474467	0.128435607910156	0.689522338867188	-1.04086577669779	0.331753662109375	0.0339170951843262	-1.27559691683451	0.542172790527344	0.954293090820313	-1.07432756868998	0.493058166503906	0.922555603027344	-1.06518267122904	0.0116358737945557	0.963878845214844	-1.11177172152201	0.529445861816406	0.845713684082031	-1.02188884798686	0.0213920974731445	0.836563354492188	-1.03623986117045	0.223547927856445	1.75437768554688	-1.05795842806498	0.0649942855834961	0.928338439941406	-1.07485204378764	0.164638748168945	1.0696591796875	-1.10496611849467	0.340354888916016	0.0380213928222657	-1.05385277620951	0.290150817871094	1.30819689941406	-1.07176018587748	0.283054229736328	1.44106311035156	-1.09312853304545	0.423893615722656	1.0721171875	-1.10973516146342	0.350548248291016	1.74438000488281	-1.04914977327983
30	0.29	0.556149108886719	1.19447631835937	-1.13578366454442	0.477970886230469	1.53410522460937	-1.16384683593114	0.0994223251342773	1.53361804199219	-1.19600961669286	0.522215637207031	1.38948266601562	-1.15574948485692	0.366115417480469	1.67074462890625	-1.18475851806005	0.0220793781280518	1.27198608398438	-1.2030115087827	0.217393249511719	1.6809453125	-1.19209823973974	0.289249969482422	1.57370092773437	-1.24196274169286	0.0158251094818115	0.908956115722656	-1.1374060400327	0.553239135742188	0.916236633300781	-1.10920981200536	0.00329447221755981	1.17815283203125	-1.19238760741552	0.149815017700195	1.4734599609375	-1.28852749999364	0.362194122314453	0.0669209747314454	-1.22070523436864	0.417146881103516	0.526022094726562	-1.16733121093114	0.323860778808594	1.11238806152344	-1.28449350341161	0.308341644287109	1.29336889648438	-1.30993100341161	0.311744018554688	0.0343990936279297	-1.01232089598974	0.255147094726562	1.10798596191406	-1.28312698729833	0.142173110961914	0.539861511230469	-1.02901517089208	0.416649261474609	0.365132720947266	-1.17977048095067	0.138695083618164	0.403656158447266	-1.1044118994077	0.440687774658203	0.686957885742188	-1.1474845922788	0.176206314086914	0.0472227401733399	-1.04899539550145	0.170599700927734	0.0651940536499024	-1.10583487304052	0.194999908447266	0.148673889160156	-1.23592642577489	0.251340393066406	0.133523986816406	-1.29395907958349	0.128793197631836	0.691826538085938	-1.0382302587827	0.331133880615234	0.0336928901672364	-1.28907394774755	0.54176220703125	0.956026733398437	-1.07050259764989	0.492438751220703	0.924500793457031	-1.06142386229833	0.0109722452163696	0.963572265625	-1.11501358397802	0.52811669921875	0.848014404296875	-1.01702481444677	0.0200994892120361	0.836358703613281	-1.03936728270849	0.22281233215332	1.75410961914063	-1.05861606200536	0.0639800109863281	0.928126098632812	-1.07756680663427	0.165848968505859	1.07038452148438	-1.10592343505224	0.340312805175781	0.03790775680542	-1.06733206542333	0.290428924560547	1.30816247558594	-1.07269394286474	0.282989227294922	1.44115515136719	-1.09394632323583	0.425061737060547	1.07161315917969	-1.11138125975927	0.349728912353516	1.74440161132813	-1.04948739989599
31	0.3	0.556844482421875	1.19516003417969	-1.13432502651215	0.478029846191406	1.53452648925781	-1.16385194301605	0.0995255126953125	1.53300476074219	-1.19738612270355	0.522670776367188	1.39002270507813	-1.15542365932465	0.365664916992188	1.67068444824219	-1.18519471645355	0.0220509757995605	1.27154382324219	-1.20557044887543	0.217033874511719	1.68060241699219	-1.19275562953949	0.289390045166016	1.57362878417969	-1.24275056362152	0.0154185361862183	0.908466552734375	-1.14057557582855	0.552951721191406	0.917251770019531	-1.10479792690277	0.00309619855880737	1.17771215820312	-1.19531147670746	0.150400360107422	1.47305163574219	-1.28978529262543	0.361613708496094	0.0666588287353516	-1.2340012960434	0.417112274169922	0.525702087402344	-1.17639955043793	0.324274475097656	1.11206689453125	-1.28546967983246	0.309154907226563	1.29332751464844	-1.31085267543793	0.311527923583984	0.0343625869750977	-1.02561732387543	0.255603164672852	1.10793786621094	-1.28429762172699	0.142767593383789	0.540740966796875	-1.02515272426605	0.416570343017578	0.365030395507813	-1.19072212123871	0.138733383178711	0.398691619873047	-1.09306849575043	0.441120239257813	0.686556396484375	-1.15401783657074	0.173282562255859	0.047947982788086	-1.01640742397308	0.168356216430664	0.0623273849487305	-1.07418720912933	0.195401779174805	0.136704315185547	-1.20902943325043	0.252285858154297	0.117140602111816	-1.26553364467621	0.129267868041992	0.693636840820313	-1.03615504360199	0.330628570556641	0.0338530349731446	-1.3026082906723	0.541311889648437	0.957508239746094	-1.06666133022308	0.491800628662109	0.926210205078125	-1.05764015102386	0.0103589820861816	0.96301806640625	-1.11817536830902	0.526779602050781	0.850169372558594	-1.01209358119965	0.0188709201812744	0.83586083984375	-1.0425037984848	0.222080810546875	1.75363549804688	-1.0592440328598	0.063067440032959	0.927603393554688	-1.08031587123871	0.166884216308594	1.07097619628906	-1.10657697963715	0.340449645996094	0.0380100860595704	-1.08079780483246	0.290614624023438	1.30782934570312	-1.07355531215668	0.282904327392578	1.44088745117188	-1.09469666957855	0.426001159667969	1.07103686523437	-1.11273158168793	0.348930145263672	1.7441728515625	-1.04991627407074
